# xmcd CD database file
#
# Track frame offsets:
#	150
#	17587
#	34787
#	48372
#	61677
#	79020
#	101725
#	121177
#	142730
#	157127
#	178155
#	194237
#
# Disc length: 2768 seconds
#
# Revision: 5
# Processed by: cddbd v1.5.2PL0 Copyright (c) Steve Scherf et al.
# Submitted via: CDex 1.77
#
DISCID=9d0ace0c
DTITLE=Various Artist - '70s R&B
DYEAR=1999
DGENRE=Other
TTITLE0=Marvin Gaye - What's Going On
TTITLE1=The Temptations - Just My Imagination (Running Away With Me)
TTITLE2=Smokey Robinson - Tears Of A Clown
TTITLE3=Jackson 5 - ABC
TTITLE4=Dobie Gray - Drift Away
TTITLE5=The Chi-Lites - Have You Seen Her
TTITLE6=Bill Withers - Lean On Me
TTITLE7=Billy Paul - Me and Mrs. Jones
TTITLE8=Al Green - I'm Still In Love With You
TTITLE9=Gladys Knight and The Pips - Midnight Train To Georgia
TTITLE10=Eddie Kendricks - Keep On Truckin' (Part 1)
TTITLE11=The O'Jays - Love Train
EXTD=100% orignal artists - Pure Gold hits YEAR: 1999
EXTT0=
EXTT1=
EXTT2=
EXTT3=
EXTT4=
EXTT5=
EXTT6=
EXTT7=
EXTT8=
EXTT9=
EXTT10=
EXTT11=
PLAYORDER=
